<?xml version="1.0" encoding="UTF-8"?>
<svg version="1.1" xmlns="http://www.w3.org/2000/svg" width="512" height="512">
<path d="M0 0 C3.58713792 0.02909217 7.17280274 0.02053623 10.76000977 0.00756836 C22.62730621 0.01804154 33.91700463 0.23797564 45.39477539 3.46655273 C46.17860596 3.68545166 46.96243652 3.90435059 47.77001953 4.12988281 C74.96664866 12.52503643 96.92819631 31.4211736 110.40405273 56.33227539 C123.50799565 81.59804768 125.13505054 109.0240039 118.39477539 136.46655273 C119.39250977 136.5606543 120.39024414 136.65475586 121.41821289 136.75170898 C125.69915373 137.37202613 129.19231445 138.94525723 133.01977539 140.90405273 C133.71127686 141.25459717 134.40277832 141.6051416 135.11523438 141.96630859 C157.0100305 153.46779854 171.46851945 172.56325385 179.76977539 195.59155273 C186.61471838 217.91333584 184.16475342 243.02025662 173.33691406 263.67358398 C160.97270733 286.03444025 141.71204579 300.76283217 117.42602539 308.40014648 C112.29394911 309.78236806 107.49899653 310.52974568 102.18774414 310.51733398 C92.42976185 310.06145106 92.42976185 310.06145106 83.65649414 313.39624023 C81.70274453 315.99314965 80.07672424 318.68768072 78.39477539 321.46655273 C63.99582995 337.55230163 43.14062482 344.83115781 22.02711487 346.362854 C17.11850461 346.55622445 12.23057817 346.26616848 7.32836914 346.00952148 C6.2722644 345.95872437 5.21615967 345.90792725 4.12805176 345.85559082 C1.55000543 345.73088193 -1.02767646 345.60110425 -3.60522461 345.46655273 C-3.60338102 346.28138721 -3.60153744 347.09622168 -3.59963799 347.9357481 C-3.55548006 367.75734494 -3.52237831 387.5789333 -3.50160027 407.40056896 C-3.49128523 416.98613946 -3.47722055 426.57167713 -3.4543457 436.15722656 C-3.4344188 444.51144139 -3.42150982 452.86563245 -3.41704762 461.21987039 C-3.41443906 465.64386043 -3.40830305 470.06778246 -3.3937645 474.49175072 C-3.38019165 478.65558742 -3.37600137 482.81932809 -3.37900925 486.98318481 C-3.37845895 488.5114068 -3.37447971 490.039632 -3.36681366 491.56783485 C-3.35685697 493.65501623 -3.35925822 495.74183544 -3.36471558 497.82902527 C-3.36287199 498.99693698 -3.3610284 500.16484869 -3.35912895 501.36815166 C-3.66805697 505.25762659 -4.60102188 508.13634796 -6.95288086 511.25170898 C-9.08259648 512.81752827 -10.4157144 512.8996227 -13.04272461 512.90405273 C-13.80456055 512.92338867 -14.56639648 512.94272461 -15.35131836 512.96264648 C-18.52612126 512.26385971 -19.5967454 511.00300898 -21.60522461 508.46655273 C-22.09741592 505.42873001 -22.09741592 505.42873001 -22.08624268 501.79742432 C-22.08966038 501.12838758 -22.09307807 500.45935085 -22.09659934 499.77004027 C-22.1031852 497.52944369 -22.08119261 495.29004663 -22.05932617 493.04956055 C-22.05819784 491.44307992 -22.05883128 489.83659723 -22.06109619 488.2301178 C-22.06224482 483.86874306 -22.0387116 479.50780751 -22.01080036 475.14653492 C-21.98581143 470.58882175 -21.98344669 466.03109874 -21.97869873 461.47332764 C-21.96626157 452.84249241 -21.93342995 444.21185962 -21.89330077 435.58111358 C-21.84860609 425.75535969 -21.82660182 415.92959618 -21.80651903 406.10376596 C-21.76469796 385.89124853 -21.69433151 365.67891338 -21.60522461 345.46655273 C-22.42805939 345.33386993 -23.25089417 345.20118713 -24.09866333 345.06448364 C-25.71863724 344.79968704 -25.71863724 344.79968704 -27.37133789 344.52954102 C-28.44167267 344.35560822 -29.51200745 344.18167542 -30.61477661 344.00247192 C-46.40151624 341.17332502 -61.90233526 332.35662264 -72.60522461 320.46655273 C-73.51236279 318.77506579 -74.39032388 317.06741326 -75.23022461 315.34155273 C-76.48614773 313.01857997 -76.48614773 313.01857997 -78.60522461 311.46655273 C-83.54039533 310.77958576 -88.29208464 311.11849369 -93.2512207 311.39428711 C-116.50644563 312.10819984 -138.60870354 302.86863409 -155.64428711 287.32983398 C-168.5424715 275.06194922 -177.53974055 259.85155088 -181.60522461 242.46655273 C-181.93973633 241.06276367 -181.93973633 241.06276367 -182.28100586 239.63061523 C-187.07979444 215.79989643 -181.93873962 191.89948445 -168.87084961 171.59936523 C-164.89545361 166.10235214 -160.38883704 161.26399064 -155.60522461 156.46655273 C-154.54561523 155.37213867 -154.54561523 155.37213867 -153.46459961 154.25561523 C-142.04477549 143.22807515 -126.83696143 137.08597534 -111.60522461 133.46655273 C-111.82178711 132.58999023 -112.03834961 131.71342773 -112.26147461 130.81030273 C-116.02705344 113.65599919 -116.38876797 95.45103666 -111.60522461 78.46655273 C-111.27651367 77.26385742 -110.94780273 76.06116211 -110.60913086 74.82202148 C-106.17004023 60.15305417 -99.09122347 46.70633746 -88.60522461 35.46655273 C-88.14212891 34.96784668 -87.6790332 34.46914063 -87.2019043 33.95532227 C-63.40938452 8.56878218 -33.95596514 -0.30037163 0 0 Z " fill="#93C0FE" transform="translate(245.605224609375,-0.466552734375)"/>
<path d="M0 0 C3.58713792 0.02909217 7.17280274 0.02053623 10.76000977 0.00756836 C22.62730621 0.01804154 33.91700463 0.23797564 45.39477539 3.46655273 C46.17860596 3.68545166 46.96243652 3.90435059 47.77001953 4.12988281 C74.96664866 12.52503643 96.92819631 31.4211736 110.40405273 56.33227539 C123.50799565 81.59804768 125.13505054 109.0240039 118.39477539 136.46655273 C119.39250977 136.5606543 120.39024414 136.65475586 121.41821289 136.75170898 C125.69915373 137.37202613 129.19231445 138.94525723 133.01977539 140.90405273 C133.71127686 141.25459717 134.40277832 141.6051416 135.11523438 141.96630859 C157.0100305 153.46779854 171.46851945 172.56325385 179.76977539 195.59155273 C186.61471838 217.91333584 184.16475342 243.02025662 173.33691406 263.67358398 C160.97270733 286.03444025 141.71204579 300.76283217 117.42602539 308.40014648 C112.29394911 309.78236806 107.49899653 310.52974568 102.18774414 310.51733398 C92.42976185 310.06145106 92.42976185 310.06145106 83.65649414 313.39624023 C81.70274453 315.99314965 80.07672424 318.68768072 78.39477539 321.46655273 C63.99582995 337.55230163 43.14062482 344.83115781 22.02711487 346.362854 C17.11850461 346.55622445 12.23057817 346.26616848 7.32836914 346.00952148 C6.2722644 345.95872437 5.21615967 345.90792725 4.12805176 345.85559082 C1.55000543 345.73088193 -1.02767646 345.60110425 -3.60522461 345.46655273 C-3.60338102 346.28138721 -3.60153744 347.09622168 -3.59963799 347.9357481 C-3.55548006 367.75734494 -3.52237831 387.5789333 -3.50160027 407.40056896 C-3.49128523 416.98613946 -3.47722055 426.57167713 -3.4543457 436.15722656 C-3.4344188 444.51144139 -3.42150982 452.86563245 -3.41704762 461.21987039 C-3.41443906 465.64386043 -3.40830305 470.06778246 -3.3937645 474.49175072 C-3.38019165 478.65558742 -3.37600137 482.81932809 -3.37900925 486.98318481 C-3.37845895 488.5114068 -3.37447971 490.039632 -3.36681366 491.56783485 C-3.35685697 493.65501623 -3.35925822 495.74183544 -3.36471558 497.82902527 C-3.36287199 498.99693698 -3.3610284 500.16484869 -3.35912895 501.36815166 C-3.66805697 505.25762659 -4.60102188 508.13634796 -6.95288086 511.25170898 C-9.08259648 512.81752827 -10.4157144 512.8996227 -13.04272461 512.90405273 C-13.80456055 512.92338867 -14.56639648 512.94272461 -15.35131836 512.96264648 C-18.52612126 512.26385971 -19.5967454 511.00300898 -21.60522461 508.46655273 C-22.09741592 505.42873001 -22.09741592 505.42873001 -22.08624268 501.79742432 C-22.08966038 501.12838758 -22.09307807 500.45935085 -22.09659934 499.77004027 C-22.1031852 497.52944369 -22.08119261 495.29004663 -22.05932617 493.04956055 C-22.05819784 491.44307992 -22.05883128 489.83659723 -22.06109619 488.2301178 C-22.06224482 483.86874306 -22.0387116 479.50780751 -22.01080036 475.14653492 C-21.98581143 470.58882175 -21.98344669 466.03109874 -21.97869873 461.47332764 C-21.96626157 452.84249241 -21.93342995 444.21185962 -21.89330077 435.58111358 C-21.84860609 425.75535969 -21.82660182 415.92959618 -21.80651903 406.10376596 C-21.76469796 385.89124853 -21.69433151 365.67891338 -21.60522461 345.46655273 C-22.42805939 345.33386993 -23.25089417 345.20118713 -24.09866333 345.06448364 C-25.71863724 344.79968704 -25.71863724 344.79968704 -27.37133789 344.52954102 C-28.44167267 344.35560822 -29.51200745 344.18167542 -30.61477661 344.00247192 C-46.40151624 341.17332502 -61.90233526 332.35662264 -72.60522461 320.46655273 C-73.51236279 318.77506579 -74.39032388 317.06741326 -75.23022461 315.34155273 C-76.48614773 313.01857997 -76.48614773 313.01857997 -78.60522461 311.46655273 C-83.54039533 310.77958576 -88.29208464 311.11849369 -93.2512207 311.39428711 C-116.50644563 312.10819984 -138.60870354 302.86863409 -155.64428711 287.32983398 C-168.5424715 275.06194922 -177.53974055 259.85155088 -181.60522461 242.46655273 C-181.93973633 241.06276367 -181.93973633 241.06276367 -182.28100586 239.63061523 C-187.07979444 215.79989643 -181.93873962 191.89948445 -168.87084961 171.59936523 C-164.89545361 166.10235214 -160.38883704 161.26399064 -155.60522461 156.46655273 C-154.54561523 155.37213867 -154.54561523 155.37213867 -153.46459961 154.25561523 C-142.04477549 143.22807515 -126.83696143 137.08597534 -111.60522461 133.46655273 C-111.82178711 132.58999023 -112.03834961 131.71342773 -112.26147461 130.81030273 C-116.02705344 113.65599919 -116.38876797 95.45103666 -111.60522461 78.46655273 C-111.27651367 77.26385742 -110.94780273 76.06116211 -110.60913086 74.82202148 C-106.17004023 60.15305417 -99.09122347 46.70633746 -88.60522461 35.46655273 C-88.14212891 34.96784668 -87.6790332 34.46914063 -87.2019043 33.95532227 C-63.40938452 8.56878218 -33.95596514 -0.30037163 0 0 Z M-71.60522461 43.46655273 C-72.2175293 44.00538086 -72.82983398 44.54420898 -73.46069336 45.09936523 C-83.05797665 53.8401404 -89.27770443 66.44103994 -93.60522461 78.46655273 C-93.94553711 79.40885742 -94.28584961 80.35116211 -94.63647461 81.32202148 C-96.86886492 88.98036047 -96.87862137 96.59891666 -96.91772461 104.52905273 C-96.92336426 105.61734375 -96.92900391 106.70563477 -96.93481445 107.8269043 C-96.85653191 116.62373892 -96.32237138 125.55087005 -92.98022461 133.77905273 C-91.51967384 137.69598433 -91.12752006 140.32644663 -91.60522461 144.46655273 C-92.64038086 146.57983398 -92.64038086 146.57983398 -94.60522461 148.46655273 C-97.27406152 149.12709728 -99.70918923 149.56854538 -102.41772461 149.90405273 C-123.26452233 153.07301453 -140.9669011 163.35668479 -153.60522461 180.46655273 C-164.61696075 197.84652183 -169.18817772 218.85924336 -164.73022461 239.16967773 C-159.52202213 258.48239027 -146.48770262 274.70707862 -129.31982422 284.66503906 C-114.78587674 292.69965744 -97.04069702 296.82043289 -80.60522461 292.46655273 C-71.96412641 291.62182999 -71.96412641 291.62182999 -68.29272461 293.90405273 C-66.31955146 296.9003527 -64.64537308 300.01272128 -62.93725586 303.16577148 C-55.75016201 315.57984268 -41.8894204 322.74589287 -28.54272461 326.84155273 C-25.45369623 327.60529116 -25.45369623 327.60529116 -21.60522461 327.46655273 C-20.63508674 310.57708659 -19.91887463 293.69659603 -19.48092556 276.78540897 C-19.27186871 268.9265488 -18.98788773 261.08539005 -18.51220703 253.23779297 C-15.14950714 213.71176038 -15.14950714 213.71176038 -30.87915039 179.0090332 C-39.73179937 169.04184368 -50.11584856 160.51937162 -60.94569492 152.79212093 C-62.60522461 151.46655273 -62.60522461 151.46655273 -63.60522461 149.46655273 C-64.05893604 142.32059777 -64.05893604 142.32059777 -62.54272461 139.46655273 C-59.24403747 137.76400453 -57.2776554 137.8645149 -53.60522461 138.46655273 C-46.17651518 143.58271152 -39.99637951 150.99232126 -33.66772461 157.40405273 C-31.59895423 159.49934177 -29.52692463 161.59132887 -27.45288086 163.68139648 C-26.09175171 165.05992798 -26.09175171 165.05992798 -24.703125 166.46630859 C-22.96770747 168.5815629 -22.96770747 168.5815629 -21.60522461 168.46655273 C-21.59491714 167.59624924 -21.58460968 166.72594574 -21.57398987 165.82926941 C-21.4760707 157.63324429 -21.37356416 149.43729221 -21.26588535 141.24138927 C-21.2106871 137.02765197 -21.15727202 132.81390769 -21.10791016 128.60009766 C-21.06022095 124.5346451 -21.00787645 120.46927684 -20.95228386 116.40392494 C-20.93188097 114.85179045 -20.91316447 113.29963285 -20.89615059 111.7474575 C-20.87206083 109.57585669 -20.84201262 107.40441486 -20.81054688 105.23291016 C-20.79500259 103.99602951 -20.77945831 102.75914886 -20.76344299 101.48478699 C-20.60522461 98.46655273 -20.60522461 98.46655273 -19.60522461 95.46655273 C-15.13267964 93.97570441 -11.07776957 93.97570441 -6.60522461 95.46655273 C-5.55709888 98.61092993 -5.46769701 100.8405998 -5.44700623 104.14225769 C-5.432323 105.91541603 -5.432323 105.91541603 -5.41734314 107.72439575 C-5.41158768 109.02271332 -5.40583221 110.32103088 -5.39990234 111.65869141 C-5.39032307 113.0384297 -5.38031296 114.41816506 -5.36990356 115.79789734 C-5.34285373 119.54551531 -5.32184459 123.29314587 -5.30190158 127.04080749 C-5.28004252 130.95661578 -5.25265344 134.87238525 -5.22584534 138.78816223 C-5.17591737 146.20414464 -5.13097892 153.62014859 -5.08782297 161.03617316 C-5.03845149 169.47867118 -4.98353303 177.92113025 -4.92814338 186.3635906 C-4.81432174 203.73120864 -4.70748308 221.09886284 -4.60522461 238.46655273 C-0.52678111 235.04134464 3.40609711 231.57391501 7.11743164 227.74633789 C7.97522217 226.86587799 8.8330127 225.98541809 9.71679688 225.07827759 C10.62115479 224.14679901 11.5255127 223.21532043 12.45727539 222.25561523 C14.40535809 220.26754109 16.3573478 218.28331288 18.30883789 216.29858398 C21.36642739 213.18699432 24.41853563 210.07054208 27.45239258 206.93579102 C29.92208541 204.38489092 32.40860516 201.85151847 34.90719604 199.3289299 C36.30815098 197.90513299 37.69065501 196.46325652 39.07275391 195.02114868 C46.16235879 187.90049723 46.16235879 187.90049723 50.37133789 187.78051758 C54.04470538 188.61402554 55.35614233 189.28628516 57.39477539 192.46655273 C58.20727539 195.59155273 58.20727539 195.59155273 57.39477539 199.46655273 C52.3769866 206.34219867 45.8951129 211.71099932 39.29522705 216.99455261 C7.89918499 241.28287893 7.89918499 241.28287893 -7.72328186 276.01443481 C-9.31295651 293.44432645 -7.46082318 311.26002279 -4.60522461 328.46655273 C-3.16640549 328.31063859 -1.72770793 328.15360248 -0.2890625 327.99609375 C0.51212509 327.9087648 1.31331268 327.82143585 2.13877869 327.73146057 C15.60825049 326.14982323 31.32908888 319.9473708 40.39477539 309.46655273 C42.56591638 306.56150493 44.50743366 303.56156849 46.39477539 300.46655273 C50.11342982 294.60722552 50.11342982 294.60722552 52.39477539 293.46655273 C54.22613988 293.41706135 56.0593687 293.4301904 57.89086914 293.47436523 C59.0078418 293.49112305 60.12481445 293.50788086 61.27563477 293.52514648 C63.61174567 293.56876415 65.94772053 293.62059092 68.28344727 293.68139648 C75.84418325 293.77639145 82.23306699 292.87751204 89.39477539 290.46655273 C90.57168945 290.09014648 91.74860352 289.71374023 92.96118164 289.32592773 C105.61059926 284.64217988 116.28269716 276.71906483 125.01977539 266.40405273 C128.38982746 263.65479973 131.14259584 264.46655273 135.39477539 264.46655273 C138.62109582 262.82456432 138.62109582 262.82456432 140.39477539 259.46655273 C140.79555854 255.76060985 140.68724188 252.17762753 140.39477539 248.46655273 C140.97485352 248.50135742 141.55493164 248.53616211 142.15258789 248.57202148 C147.36608458 248.75268721 150.89815835 248.42773957 155.39477539 245.46655273 C157.74027213 241.94830762 157.97468942 240.60879579 157.39477539 236.46655273 C154.84453174 233.36490505 153.21778292 231.74088858 149.39477539 230.46655273 C147.83359111 230.39914409 146.26975019 230.38140817 144.70727539 230.40405273 C143.8990332 230.41307617 143.09079102 230.42209961 142.25805664 230.43139648 C141.64317383 230.44299805 141.02829102 230.45459961 140.39477539 230.46655273 C140.41217773 229.46688477 140.41217773 229.46688477 140.42993164 228.44702148 C140.63550376 207.44929772 135.615371 189.4141277 121.39477539 173.46655273 C120.76700195 172.7562793 120.13922852 172.04600586 119.49243164 171.31420898 C108.88558558 160.01325439 94.19925107 152.92285827 79.07446289 150.20483398 C76.21354998 149.41662328 75.06694928 148.89572427 73.39477539 146.46655273 C72.33324215 141.19010809 73.5144131 136.55989706 75.56274414 131.71655273 C81.5425408 115.54583501 80.93738546 92.29752399 74.39477539 76.46655273 C74.03254883 75.45334961 73.67032227 74.44014648 73.29711914 73.39624023 C68.77878307 61.41882055 61.30506519 51.54157058 52.39477539 42.46655273 C51.6587207 41.70600586 50.92266602 40.94545898 50.16430664 40.16186523 C33.46750849 23.99645597 10.35475486 17.03991124 -12.48388672 17.09863281 C-35.07978723 17.51711214 -55.56342804 27.90914434 -71.60522461 43.46655273 Z " fill="#0E65E5" transform="translate(245.605224609375,-0.466552734375)"/>
<path d="M0 0 C3.72899631 2.68939734 6.47398367 5.76183662 8.578125 9.859375 C8.578125 10.519375 8.578125 11.179375 8.578125 11.859375 C9.92003906 11.77236328 9.92003906 11.77236328 11.2890625 11.68359375 C22.15211367 11.27825602 29.48816526 13.49894464 37.578125 20.859375 C39.34375 23.76953125 39.34375 23.76953125 40.828125 26.921875 C41.32828125 27.96472656 41.8284375 29.00757813 42.34375 30.08203125 C44.57155173 35.09458515 45.31662578 39.41416257 44.578125 44.859375 C42.70191887 47.36098318 41.33921197 48.47883152 38.578125 49.859375 C35.06004017 50.25027331 33.06211273 50.10699663 29.890625 48.484375 C27.02224602 45.22837724 26.40077882 42.34528092 25.328125 38.20703125 C24.38449432 35.25327063 23.05617337 33.69792701 20.578125 31.859375 C17.55375161 30.3471883 14.91570966 30.68674131 11.578125 30.859375 C10.61519531 31.34664062 10.61519531 31.34664062 9.6328125 31.84375 C6.05875692 33.61039344 2.46036906 33.51957177 -1.421875 32.859375 C-5.67897461 29.52272936 -6.81644878 24.2903191 -8.39453125 19.28515625 C-9.29090303 16.5495753 -9.29090303 16.5495753 -12.421875 14.859375 C-17.56631725 14.20427749 -21.6820224 14.80970901 -26.421875 16.859375 C-30.31379523 17.17708277 -33.18692895 17.17005075 -36.421875 14.859375 C-38.7239699 11.63644214 -38.89698154 8.73941176 -38.421875 4.859375 C-36.37520317 0.76603134 -33.62992676 -0.73932566 -29.546875 -2.453125 C-19.10339575 -5.8323067 -9.61469429 -5.39862514 0 0 Z " fill="#0E65E5" transform="translate(448.421875,26.140625)"/>
<path d="M0 0 C16.71745892 8.54693926 28.22593504 23.00790571 34.1015625 40.734375 C35.07909298 45.08596229 35.4470447 49.18361795 35.51171875 53.6328125 C35.52654297 54.3556543 35.54136719 55.07849609 35.55664062 55.82324219 C35.48933765 59.21563287 35.17396716 61.19798427 33.1640625 63.96875 C30.82682869 65.59285956 29.75631916 66.05167344 26.94921875 66.0078125 C25.95921875 66.02328125 25.95921875 66.02328125 24.94921875 66.0390625 C21.91055515 65.23191748 20.82423384 64.0303434 18.94921875 61.5078125 C18.28306326 58.71972207 17.80830213 56.14391607 17.44921875 53.3203125 C16.45841202 46.84695081 15.28590196 41.23107252 11.94921875 35.5078125 C11.51738281 34.75242188 11.08554687 33.99703125 10.640625 33.21875 C4.98364419 24.05106837 -2.26537975 18.76996943 -12.05078125 14.5078125 C-12.82035156 14.14945313 -13.58992188 13.79109375 -14.3828125 13.421875 C-18.92708171 11.86498042 -23.69274727 11.76824539 -28.45703125 11.36328125 C-32.76369078 10.33810904 -34.39827934 9.0121756 -37.05078125 5.5078125 C-37.55078005 2.66406931 -36.93965061 0.23960435 -36.05078125 -2.4921875 C-28.88002462 -12.59643549 -8.69129729 -3.79463176 0 0 Z " fill="#FDFEFF" transform="translate(265.05078125,40.4921875)"/>
<path d="M0 0 C3.5042661 2.36855512 6.73569429 4.82779115 8 9 C8.47580309 12.7271242 8.27363413 14.50745856 6.4375 17.8125 C3.24450523 20.67800813 1.25880812 21 -3 21 C-5.6875 19.75 -5.6875 19.75 -8 18 C-8.763125 17.443125 -9.52625 16.88625 -10.3125 16.3125 C-10.869375 15.879375 -11.42625 15.44625 -12 15 C-14.75688524 16.01660143 -15.80003855 16.59521693 -17.125 19.27734375 C-17.41375 20.15519531 -17.7025 21.03304687 -18 21.9375 C-19.30172059 25.88334053 -20.36577312 27.8686489 -24 30 C-27.68822159 30.63834604 -29.9875181 30.61174476 -33.23046875 28.65234375 C-35.21836126 27.16406316 -37.12939699 25.63252626 -39 24 C-42.79864027 27.12031165 -44.24269187 30.50686912 -45.97265625 34.9765625 C-47 37 -47 37 -50 39 C-57.11864407 39.6779661 -57.11864407 39.6779661 -60.4375 37.125 C-63.12248668 33.47341811 -63.20684913 31.17637925 -62.62890625 26.640625 C-60.71499895 18.60459186 -56.01318477 11.4151186 -49 7 C-44.25093769 4.82334644 -39.03780461 3.918447 -33.9921875 5.71484375 C-33.00605469 5.85599609 -33.00605469 5.85599609 -32 6 C-30.26051683 4.67872637 -30.26051683 4.67872637 -28.75 2.75 C-20.50723788 -6.05516807 -10.01213263 -5.71857483 0 0 Z " fill="#0E65E5" transform="translate(82,47)"/>
<path d="M0 0 C1.18722656 -0.02835938 2.37445313 -0.05671875 3.59765625 -0.0859375 C7.57135386 0.46247925 9.20149337 1.47625692 11.9375 4.375 C12.8005133 7.11948951 12.5741518 9.58176192 11.9375 12.375 C9.3993195 15.67463466 7.35018986 17.18853305 3.21484375 17.734375 C1.56162109 17.92773438 1.56162109 17.92773438 -0.125 18.125 C-6.38909842 19.05839215 -10.88439668 20.78611132 -16.0625 24.375 C-17.114375 25.07625 -18.16625 25.7775 -19.25 26.5 C-26.28903001 32.81355895 -28.71296579 41.43849218 -29.640625 50.52734375 C-30.05105471 53.29774431 -30.53969778 55.04386099 -32.0625 57.375 C-35.74464956 59.82976637 -38.78720215 60.17500543 -43.0625 59.375 C-45.5625 57.5 -45.5625 57.5 -47.0625 54.375 C-48.79183458 41.84840975 -44.43867861 29.54997522 -36.984375 19.6015625 C-27.75990273 8.86118045 -14.50040476 0.1577846 0 0 Z " fill="#FDFEFF" transform="translate(143.0625,170.625)"/>
<path d="M0 0 C1.97265625 0.4296875 1.97265625 0.4296875 4.97265625 2.2421875 C7.88558649 6.88467007 7.39347499 11.08996527 6.97265625 16.4296875 C7.84277344 16.37748047 7.84277344 16.37748047 8.73046875 16.32421875 C13.94396544 16.14355302 17.47603921 16.46850067 21.97265625 19.4296875 C24.31815299 22.94793261 24.55257028 24.28744444 23.97265625 28.4296875 C21.4224126 31.53133519 19.79566378 33.15535166 15.97265625 34.4296875 C14.41147197 34.49709615 12.84763105 34.51483206 11.28515625 34.4921875 C10.07279297 34.47865234 10.07279297 34.47865234 8.8359375 34.46484375 C8.22105469 34.45324219 7.60617187 34.44164062 6.97265625 34.4296875 C7.03066406 35.16574219 7.08867187 35.90179688 7.1484375 36.66015625 C7.51400732 44.56690923 7.51400732 44.56690923 4.97265625 48.6171875 C0.78133298 51.14944531 -1.1774924 51.19950517 -6.02734375 50.4296875 C-8.52734375 48.6796875 -8.52734375 48.6796875 -10.02734375 45.4296875 C-10.34127637 41.4061178 -10.25851932 37.45599543 -10.02734375 33.4296875 C-10.919375 33.48769531 -11.81140625 33.54570312 -12.73046875 33.60546875 C-13.9009375 33.65058594 -15.07140625 33.69570312 -16.27734375 33.7421875 C-17.4375 33.80019531 -18.59765625 33.85820312 -19.79296875 33.91796875 C-23.02734375 33.4296875 -23.02734375 33.4296875 -25.41015625 31.12890625 C-27.56298468 27.5356588 -27.76300926 25.54941436 -27.02734375 21.4296875 C-24.88465123 18.70788889 -24.08319359 17.71210464 -21.02734375 16.4296875 C-17.31955045 16.03296888 -13.73973739 16.13243178 -10.02734375 16.4296875 C-10.07375 15.60984375 -10.12015625 14.79 -10.16796875 13.9453125 C-10.22210938 12.32882813 -10.22210938 12.32882813 -10.27734375 10.6796875 C-10.32375 9.61234375 -10.37015625 8.545 -10.41796875 7.4453125 C-10.02734375 4.4296875 -10.02734375 4.4296875 -8.2578125 2.07421875 C-5.53722907 0.06832449 -3.35769532 -0.21338624 0 0 Z " fill="#FAFCFE" transform="translate(379.02734375,213.5703125)"/>
</svg>
